<?xml version="1.0" encoding="UTF-8"?>
<svg version="1.1" viewBox="0 0 640 294" xmlns="http://www.w3.org/2000/svg" xmlns:cc="http://creativecommons.org/ns#" xmlns:dc="http://purl.org/dc/elements/1.1/" xmlns:rdf="http://www.w3.org/1999/02/22-rdf-syntax-ns#" xmlns:xlink="http://www.w3.org/1999/xlink">
<metadata>
<rdf:RDF>
<cc:Work rdf:about="">
<dc:format>image/svg+xml</dc:format>
<dc:type rdf:resource="http://purl.org/dc/dcmitype/StillImage"/>
<dc:title/>
</cc:Work>
</rdf:RDF>
</metadata>
<defs>
<path id="c" d="m626.67 122.17c5.52 0 10 4.48 10 10v16.24c0 5.52-4.48 10-10 10h-611.89c-5.52 0-10-4.48-10-10v-16.24c0-5.52 4.48-10 10-10h611.89z"/>
<path id="a" d="m626.67 237.83c5.52 0 10 4.47 10 10v16.23c0 5.52-4.48 10-10 10h-466.96c-5.52 0-10-4.48-10-10v-16.23c0-5.53 4.48-10 10-10h466.96z"/>
<path id="b" d="m626.67 356.38c5.52 0 10 4.47 10 10v16.23c0 5.52-4.48 10-10 10h-304.64c-5.52 0-10-4.48-10-10v-16.23c0-5.53 4.48-10 10-10h304.64z"/>
</defs>
<g transform="translate(-.8377 -44.935)">
<use width="100%" height="100%" fill="#ffffff" xlink:href="#c"/>
<use width="100%" height="100%" fill-opacity="0" stroke="#000000" xlink:href="#c"/>
<use width="100%" height="100%" fill="#ffffff" xlink:href="#a"/>
<use width="100%" height="100%" fill-opacity="0" stroke="#000000" xlink:href="#a"/>
<use width="100%" height="100%" fill="#ffffff" xlink:href="#b"/>
<use width="100%" height="100%" fill-opacity="0" stroke="#000000" xlink:href="#b"/>
</g>
<path d="m8.8729 110.75c-3.7011-2.2567-4.7216-6.5407-4.2604-17.885 0.36003-8.8563 0.42639-9.1121 3.042-11.728l2.674-2.674 308.47-0.24526c286.95-0.22815 308.65-0.14756 311.14 1.1553 4.1584 2.1744 5.2797 5.5276 5.2797 15.788 0 9.7212-1.0463 13.593-4.2864 15.863-1.7945 1.2569-26.608 1.3658-310.66 1.3629-304.63-3e-3 -308.75-0.0247-311.39-1.6372z"/>
<path d="m152.72 225.62c-2.8294-2.8294-3.7805-8.402-3.1861-18.669 0.41466-7.163 1.864-10.241 5.7663-12.247 1.5837-0.81389 52.143-1.0374 236.86-1.0471 212.15-0.0112 235.12 0.11536 237.63 1.3089 4.2674 2.025 5.4269 5.3998 5.4269 15.796 0 9.7212-1.0463 13.593-4.2864 15.863-1.7919 1.2551-21.193 1.366-238.9 1.366h-236.95z"/>
<path d="m317.16 345.59c-4.1871-2.0649-5.2951-5.4544-5.2951-16.199 0-9.9877 0.85775-13.028 4.3701-15.488 1.6752-1.1733 17.806-1.3074 157.31-1.3074 172.68 0 157.99-0.50602 160.51 5.5276 1.6873 4.0383 1.5845 19.729-0.15321 23.391-2.7771 5.8522 9.7818 5.429-160.48 5.4079-137.76-0.0171-153.87-0.15444-156.25-1.3324z"/>
</svg>
