<?xml version="1.0" encoding="UTF-8"?>
<svg width="600mm" height="400mm" version="1.1" viewBox="0 0 600 400" xmlns="http://www.w3.org/2000/svg" xmlns:cc="http://creativecommons.org/ns#" xmlns:dc="http://purl.org/dc/elements/1.1/" xmlns:rdf="http://www.w3.org/1999/02/22-rdf-syntax-ns#">
<metadata>
<rdf:RDF>
<cc:Work rdf:about="">
<dc:format>image/svg+xml</dc:format>
<dc:type rdf:resource="http://purl.org/dc/dcmitype/StillImage"/>
<dc:title/>
</cc:Work>
</rdf:RDF>
</metadata>
<g transform="translate(0,103)" stroke-linecap="round" stroke-linejoin="round">
<rect x="33.262" y="-44.69" width="521.61" height="281.21" rx="9.4241" ry="10.995" fill="none" stroke="#00000f" stroke-width="25" style="paint-order:fill markers stroke"/>
<path d="m42.408 49.802 502.62 1.5707" fill="none" stroke="#000" stroke-width="15"/>
<rect x="50.5" y="-29.16" width="31.961" height="14.66" rx="10" ry="10" stroke="#00000f" stroke-width="5" style="paint-order:fill markers stroke"/>
<rect x="50.5" y="-8.1467" width="31.961" height="14.66" rx="10" ry="10" stroke="#00000f" stroke-width="5" style="paint-order:fill markers stroke"/>
<rect x="50.5" y="143.52" width="31.961" height="14.66" rx="10" ry="10" stroke="#00000f" stroke-width="5" style="paint-order:fill markers stroke"/>
<rect x="50.5" y="164.67" width="31.961" height="14.66" rx="10" ry="10" stroke="#00000f" stroke-width="5" style="paint-order:fill markers stroke"/>
<rect x="50.5" y="185.53" width="31.961" height="14.66" rx="10" ry="10" stroke="#00000f" stroke-width="5" style="paint-order:fill markers stroke"/>
<rect x="50.5" y="206.12" width="31.961" height="14.66" rx="10" ry="10" stroke="#00000f" stroke-width="5" style="paint-order:fill markers stroke"/>
<rect x="50.5" y="122.46" width="31.961" height="14.66" rx="10" ry="10" stroke="#00000f" stroke-width="5" style="paint-order:fill markers stroke"/>
<path d="m66.924 232.6-0.52356-278.53" fill="none" stroke="#000" stroke-width="5"/>
<rect x="92.055" y="-29.16" width="31.961" height="14.66" rx="10" ry="10" stroke="#00000f" stroke-width="5" style="paint-order:fill markers stroke"/>
<rect x="133.63" y="-29.16" width="31.961" height="14.66" rx="10" ry="10" stroke="#00000f" stroke-width="5" style="paint-order:fill markers stroke"/>
<rect x="174.76" y="-29.16" width="31.961" height="14.66" rx="10" ry="10" stroke="#00000f" stroke-width="5" style="paint-order:fill markers stroke"/>
<rect x="215.91" y="-29.16" width="31.961" height="14.66" rx="10" ry="10" stroke="#00000f" stroke-width="5" style="paint-order:fill markers stroke"/>
<rect x="257.29" y="-29.16" width="31.961" height="14.66" rx="10" ry="10" stroke="#00000f" stroke-width="5" style="paint-order:fill markers stroke"/>
<rect x="297.86" y="-29.16" width="31.961" height="14.66" rx="10" ry="10" stroke="#00000f" stroke-width="5" style="paint-order:fill markers stroke"/>
<rect x="338.29" y="-29.16" width="31.961" height="14.66" rx="10" ry="10" stroke="#00000f" stroke-width="5" style="paint-order:fill markers stroke"/>
<rect x="379.6" y="-29.16" width="31.961" height="14.66" rx="10" ry="10" stroke="#00000f" stroke-width="5" style="paint-order:fill markers stroke"/>
<rect x="421.05" y="-29.16" width="31.961" height="14.66" rx="10" ry="10" stroke="#00000f" stroke-width="5" style="paint-order:fill markers stroke"/>
<rect x="462.9" y="-29.16" width="31.961" height="14.66" rx="10" ry="10" stroke="#00000f" stroke-width="5" style="paint-order:fill markers stroke"/>
<rect x="504.24" y="-29.16" width="31.961" height="14.66" rx="10" ry="10" stroke="#00000f" stroke-width="5" style="paint-order:fill markers stroke"/>
<rect x="504.24" y="26.237" width="31.961" height="14.66" rx="10" ry="10" stroke="#00000f" stroke-width="5" style="paint-order:fill markers stroke"/>
<path d="m108.41 232.96-0.52356-278.53" fill="none" stroke="#000" stroke-width="5"/>
<path d="m149.74 237.67-0.52356-278.53" fill="none" stroke="#000" stroke-width="5"/>
<path d="m191.65 230.8-0.52356-278.53" fill="none" stroke="#000" stroke-width="5"/>
<path d="m232.2 233.26-0.52356-278.53" fill="none" stroke="#000" stroke-width="5"/>
<path d="m273.56 230.51-0.52356-278.53" fill="none" stroke="#000" stroke-width="5"/>
<path d="m314.33 232.6-0.52356-278.53" fill="none" stroke="#000" stroke-width="5"/>
<path d="m354.19 235.74-0.52356-278.53" fill="none" stroke="#000" stroke-width="5"/>
<path d="m396.48 231.55-0.52356-278.53" fill="none" stroke="#000" stroke-width="5"/>
<path d="m436.39 235.22-0.52356-278.53" fill="none" stroke="#000" stroke-width="5"/>
<path d="m479.52 236.27-0.52356-278.53" fill="none" stroke="#000" stroke-width="5"/>
<path d="m520.68 232.08-0.52356-278.53" fill="none" stroke="#000" stroke-width="5"/>
<rect x="462.9" y="26.079" width="31.961" height="14.66" rx="10" ry="10" stroke="#00000f" stroke-width="5" style="paint-order:fill markers stroke"/>
<rect x="504.24" y="61.757" width="31.961" height="14.66" rx="10" ry="10" stroke="#00000f" stroke-width="5" style="paint-order:fill markers stroke"/>
<rect x="504.24" y="165.12" width="31.961" height="14.66" rx="10" ry="10" stroke="#00000f" stroke-width="5" style="paint-order:fill markers stroke"/>
<rect x="504.24" y="185.61" width="31.961" height="14.66" rx="10" ry="10" stroke="#00000f" stroke-width="5" style="paint-order:fill markers stroke"/>
<rect x="504.24" y="206.11" width="31.961" height="14.66" rx="10" ry="10" stroke="#00000f" stroke-width="5" style="paint-order:fill markers stroke"/>
<rect x="504.24" y="144.43" width="31.961" height="14.66" rx="10" ry="10" stroke="#00000f" stroke-width="5" style="paint-order:fill markers stroke"/>
<rect x="92.425" y="122.46" width="31.961" height="14.66" rx="10" ry="10" stroke="#00000f" stroke-width="5" style="paint-order:fill markers stroke"/>
<rect x="92.055" y="143.52" width="31.961" height="14.66" rx="10" ry="10" stroke="#00000f" stroke-width="5" style="paint-order:fill markers stroke"/>
<rect x="92.425" y="164.67" width="31.961" height="14.66" rx="10" ry="10" stroke="#00000f" stroke-width="5" style="paint-order:fill markers stroke"/>
<rect x="92.425" y="185.53" width="31.961" height="14.66" rx="10" ry="10" stroke="#00000f" stroke-width="5" style="paint-order:fill markers stroke"/>
<rect x="92.425" y="206.12" width="31.961" height="14.66" rx="10" ry="10" stroke="#00000f" stroke-width="5" style="paint-order:fill markers stroke"/>
<rect x="216.28" y="122.46" width="31.961" height="14.66" rx="10" ry="10" stroke="#00000f" stroke-width="5" style="paint-order:fill markers stroke"/>
<rect x="215.91" y="143.52" width="31.961" height="14.66" rx="10" ry="10" stroke="#00000f" stroke-width="5" style="paint-order:fill markers stroke"/>
<rect x="216.28" y="164.67" width="31.961" height="14.66" rx="10" ry="10" stroke="#00000f" stroke-width="5" style="paint-order:fill markers stroke"/>
<rect x="216.28" y="185.53" width="31.961" height="14.66" rx="10" ry="10" stroke="#00000f" stroke-width="5" style="paint-order:fill markers stroke"/>
<rect x="216.28" y="206.12" width="31.961" height="14.66" rx="10" ry="10" stroke="#00000f" stroke-width="5" style="paint-order:fill markers stroke"/>
<rect x="257.66" y="122.46" width="31.961" height="14.66" rx="10" ry="10" stroke="#00000f" stroke-width="5" style="paint-order:fill markers stroke"/>
<rect x="257.29" y="143.52" width="31.961" height="14.66" rx="10" ry="10" stroke="#00000f" stroke-width="5" style="paint-order:fill markers stroke"/>
<rect x="257.66" y="164.67" width="31.961" height="14.66" rx="10" ry="10" stroke="#00000f" stroke-width="5" style="paint-order:fill markers stroke"/>
<rect x="257.66" y="185.53" width="31.961" height="14.66" rx="10" ry="10" stroke="#00000f" stroke-width="5" style="paint-order:fill markers stroke"/>
<rect x="257.66" y="206.12" width="31.961" height="14.66" rx="10" ry="10" stroke="#00000f" stroke-width="5" style="paint-order:fill markers stroke"/>
<rect x="421.42" y="61.556" width="31.961" height="14.66" rx="10" ry="10" stroke="#00000f" stroke-width="5" style="paint-order:fill markers stroke"/>
<rect x="421.05" y="82.122" width="31.961" height="14.66" rx="10" ry="10" stroke="#00000f" stroke-width="5" style="paint-order:fill markers stroke"/>
<rect x="421.42" y="102.77" width="31.961" height="14.66" rx="10" ry="10" stroke="#00000f" stroke-width="5" style="paint-order:fill markers stroke"/>
<rect x="421.42" y="123.23" width="31.961" height="14.66" rx="10" ry="10" stroke="#00000f" stroke-width="5" style="paint-order:fill markers stroke"/>
<rect x="421.42" y="206.12" width="31.961" height="14.66" rx="10" ry="10" stroke="#00000f" stroke-width="5" style="paint-order:fill markers stroke"/>
<rect x="134" y="122.46" width="31.961" height="14.66" rx="10" ry="10" stroke="#00000f" stroke-width="5" style="paint-order:fill markers stroke"/>
<rect x="133.63" y="143.52" width="31.961" height="14.66" rx="10" ry="10" stroke="#00000f" stroke-width="5" style="paint-order:fill markers stroke"/>
<rect x="134" y="164.67" width="31.961" height="14.66" rx="10" ry="10" stroke="#00000f" stroke-width="5" style="paint-order:fill markers stroke"/>
<rect x="134" y="185.53" width="31.961" height="14.66" rx="10" ry="10" stroke="#00000f" stroke-width="5" style="paint-order:fill markers stroke"/>
<rect x="134" y="206.12" width="31.961" height="14.66" rx="10" ry="10" stroke="#00000f" stroke-width="5" style="paint-order:fill markers stroke"/>
<rect x="92.055" y="-8.1467" width="31.961" height="14.66" rx="10" ry="10" stroke="#00000f" stroke-width="5" style="paint-order:fill markers stroke"/>
<rect x="133.63" y="-8.1467" width="31.961" height="14.66" rx="10" ry="10" stroke="#00000f" stroke-width="5" style="paint-order:fill markers stroke"/>
<rect x="174.76" y="-8.1467" width="31.961" height="14.66" rx="10" ry="10" stroke="#00000f" stroke-width="5" style="paint-order:fill markers stroke"/>
<rect x="215.91" y="-8.1467" width="31.961" height="14.66" rx="10" ry="10" stroke="#00000f" stroke-width="5" style="paint-order:fill markers stroke"/>
<rect x="257.29" y="-8.1467" width="31.961" height="14.66" rx="10" ry="10" stroke="#00000f" stroke-width="5" style="paint-order:fill markers stroke"/>
<rect x="297.86" y="-8.1467" width="31.961" height="14.66" rx="10" ry="10" stroke="#00000f" stroke-width="5" style="paint-order:fill markers stroke"/>
<rect x="338.29" y="-8.1467" width="31.961" height="14.66" rx="10" ry="10" stroke="#00000f" stroke-width="5" style="paint-order:fill markers stroke"/>
<rect x="379.6" y="-8.1467" width="31.961" height="14.66" rx="10" ry="10" stroke="#00000f" stroke-width="5" style="paint-order:fill markers stroke"/>
<rect x="421.05" y="-8.1467" width="31.961" height="14.66" rx="10" ry="10" stroke="#00000f" stroke-width="5" style="paint-order:fill markers stroke"/>
<rect x="175.13" y="122.46" width="31.961" height="14.66" rx="10" ry="10" stroke="#00000f" stroke-width="5" style="paint-order:fill markers stroke"/>
<rect x="174.76" y="143.52" width="31.961" height="14.66" rx="10" ry="10" stroke="#00000f" stroke-width="5" style="paint-order:fill markers stroke"/>
<rect x="175.13" y="164.67" width="31.961" height="14.66" rx="10" ry="10" stroke="#00000f" stroke-width="5" style="paint-order:fill markers stroke"/>
<rect x="175.13" y="185.53" width="31.961" height="14.66" rx="10" ry="10" stroke="#00000f" stroke-width="5" style="paint-order:fill markers stroke"/>
<rect x="175.13" y="206.12" width="31.961" height="14.66" rx="10" ry="10" stroke="#00000f" stroke-width="5" style="paint-order:fill markers stroke"/>
<rect x="463.27" y="122.46" width="31.961" height="14.66" rx="10" ry="10" stroke="#00000f" stroke-width="5" style="paint-order:fill markers stroke"/>
<rect x="462.9" y="143.52" width="31.961" height="14.66" rx="10" ry="10" stroke="#00000f" stroke-width="5" style="paint-order:fill markers stroke"/>
<rect x="463.27" y="164.67" width="31.961" height="14.66" rx="10" ry="10" stroke="#00000f" stroke-width="5" style="paint-order:fill markers stroke"/>
<rect x="463.27" y="185.53" width="31.961" height="14.66" rx="10" ry="10" stroke="#00000f" stroke-width="5" style="paint-order:fill markers stroke"/>
<rect x="463.27" y="206.12" width="31.961" height="14.66" rx="10" ry="10" stroke="#00000f" stroke-width="5" style="paint-order:fill markers stroke"/>
<rect x="379.97" y="61.356" width="31.961" height="14.66" rx="10" ry="10" stroke="#00000f" stroke-width="5" style="paint-order:fill markers stroke"/>
<rect x="379.6" y="82.022" width="31.961" height="14.66" rx="10" ry="10" stroke="#00000f" stroke-width="5" style="paint-order:fill markers stroke"/>
<rect x="379.7" y="102.69" width="31.961" height="14.66" rx="10" ry="10" stroke="#00000f" stroke-width="5" style="paint-order:fill markers stroke"/>
<rect x="379.97" y="185.53" width="31.961" height="14.66" rx="10" ry="10" stroke="#00000f" stroke-width="5" style="paint-order:fill markers stroke"/>
<rect x="379.97" y="206.12" width="31.961" height="14.66" rx="10" ry="10" stroke="#00000f" stroke-width="5" style="paint-order:fill markers stroke"/>
<rect x="338.66" y="61.556" width="31.961" height="14.66" rx="10" ry="10" stroke="#00000f" stroke-width="5" style="paint-order:fill markers stroke"/>
<rect x="338.29" y="82.322" width="31.961" height="14.66" rx="10" ry="10" stroke="#00000f" stroke-width="5" style="paint-order:fill markers stroke"/>
<rect x="338.66" y="164.67" width="31.961" height="14.66" rx="10" ry="10" stroke="#00000f" stroke-width="5" style="paint-order:fill markers stroke"/>
<rect x="338.66" y="185.53" width="31.961" height="14.66" rx="10" ry="10" stroke="#00000f" stroke-width="5" style="paint-order:fill markers stroke"/>
<rect x="338.66" y="206.12" width="31.961" height="14.66" rx="10" ry="10" stroke="#00000f" stroke-width="5" style="paint-order:fill markers stroke"/>
<rect x="298.23" y="61.356" width="31.961" height="14.66" rx="10" ry="10" stroke="#00000f" stroke-width="5" style="paint-order:fill markers stroke"/>
<rect x="297.86" y="143.52" width="31.961" height="14.66" rx="10" ry="10" stroke="#00000f" stroke-width="5" style="paint-order:fill markers stroke"/>
<rect x="298.23" y="164.67" width="31.961" height="14.66" rx="10" ry="10" stroke="#00000f" stroke-width="5" style="paint-order:fill markers stroke"/>
<rect x="298.23" y="185.53" width="31.961" height="14.66" rx="10" ry="10" stroke="#00000f" stroke-width="5" style="paint-order:fill markers stroke"/>
<rect x="298.23" y="206.12" width="31.961" height="14.66" rx="10" ry="10" stroke="#00000f" stroke-width="5" style="paint-order:fill markers stroke"/>
</g>
</svg>
